PathFileType	3	(X/Y/Z)	C:\Users\koon_\Desktop\
DataRate	CameraRate	NumFrames	NumMarkers	Units	OrigDataRate	OrigDataStartFrame	OrigNumFrames
100.0	100.0	4	27	mm	100.0	828	3309	
Frame#	Time	get:LFHD			get:RFHD			get:LBHD			get:RBHD			get:C7			get:T10			get:CLAV			get:STRN			get:RBAK			get:LSHO			get:LUPA			get:LELB			get:LFRA			get:LWRA			get:LWRB			get:LFIN			get:RSHO			get:RUPA			get:RELB			get:RFRA			get:RWRA			get:RWRB			get:RFIN			get:LASI			get:RASI			get:LPSI			get:RPSI			
		X1	Y1	Z1	X2	Y2	Z2	X3	Y3	Z3	X4	Y4	Z4	X5	Y5	Z5	X6	Y6	Z6	X7	Y7	Z7	X8	Y8	Z8	X9	Y9	Z9	X10	Y10	Z10	X11	Y11	Z11	X12	Y12	Z12	X13	Y13	Z13	X14	Y14	Z14	X15	Y15	Z15	X16	Y16	Z16	X17	Y17	Z17	X18	Y18	Z18	X19	Y19	Z19	X20	Y20	Z20	X21	Y21	Z21	X22	Y22	Z22	X23	Y23	Z23	X24	Y24	Z24	X25	Y25	Z25	X26	Y26	Z26	X27	Y27	Z27	
828	8.27	85.74234	1569.0265	-50.273144	-55.340725	1560.8536	-48.332737	60.49865	1552.2855	-209.82124	-67.792107	1520.5861	-210.23711	23.942789	1340.4426	-219.22015	18.819847	1130.6926	-251.93124	11.580351	1272.433	-22.562113	16.649393	1078.0178	24.070591	-56.429932	1262.2194	-247.65646	149.58519	1340.1099	-128.27972	246.48448	1209.6163	-108.32021	290.87085	1020.3821	-131.84932	323.01981	891.81519	-68.637177	316.83206	809.94385	-42.610596	334.88266	809.04181	-126.37098	381.2337	744.80066	-63.94825	-112.57215	1337.6019	-138.27898	-221.36053	1142.9705	-88.098625	-267.29672	1027.947	-119.94716	-250.06325	1038.6373	-23.066021	-232.23639	939.35114	97.368683	-299.10818	912.12274	60.442368	-283.9856	898.06549	165.48108	143.8493	891.8714	-13.123409	-121.94733	877.43884	-21.75565	59.017769	947.58423	-231.99754	-30.648336	945.47534	-236.85106
829	8.28	86.342918	1568.9276	-50.358692	-54.749962	1560.374	-48.777294	61.478283	1552.8445	-210.03215	-66.725487	1520.8613	-210.95958	26.029016	1340.2761	-219.8644	19.715054	1130.4745	-252.36195	12.715439	1272.8773	-23.28157	16.972357	1078.3893	23.961519	-54.63055	1262.2813	-248.73808	151.34225	1339.8075	-128.4559	246.35619	1207.9165	-108.20147	286.75247	1017.966	-133.52136	315.76953	887.27051	-73.571671	307.88351	804.63068	-49.98468	325.62268	805.99768	-133.75586	370.35394	738.1441	-73.736641	-110.44335	1338.5432	-139.86674	-222.27522	1147.4653	-86.763084	-270.36829	1033.5049	-115.26004	-251.98558	1050.5952	-19.343008	-234.62659	961.2005	108.22502	-302.51715	932.55487	74.313705	-286.89844	926.52948	179.63593	144.11038	892.05811	-12.650056	-121.95267	877.53528	-22.058218	59.341522	947.53778	-231.9984	-30.325266	945.5155	-237.05202
830	8.29	86.918549	1568.8022	-50.417263	-54.11684	1559.9451	-49.175892	62.452251	1553.387	-210.22874	-65.725708	1521.1034	-211.4993	28.081894	1340.2283	-220.7981	20.71629	1130.1531	-252.79015	13.829445	1273.3671	-24.074038	17.201092	1078.9066	23.867861	-52.82745	1262.2205	-249.87433	153.07205	1339.592	-128.64172	246.32277	1206.3026	-108.55409	282.62573	1015.7662	-135.78716	308.95251	883.46967	-78.246315	299.37698	800.33838	-56.391308	317.13806	803.41455	-140.06024	360.20001	732.76379	-81.839127	-108.24547	1339.5396	-141.59862	-223.33344	1152.5403	-85.589027	-273.67667	1039.885	-110.04856	-254.05589	1063.5276	-16.035927	-236.96391	984.94434	118.48369	-305.7381	955.23859	87.674484	-289.69104	957.6532	192.7592	144.12212	892.00385	-12.571831	-121.94787	877.64532	-22.31274	59.675873	947.52173	-232.04787	-29.945154	945.55817	-237.21227
831	8.3	87.544914	1568.6168	-50.569466	-53.464939	1559.4938	-49.599873	63.44799	1553.9513	-210.4668	-64.661255	1521.4397	-212.1319	30.201431	1340.0719	-221.56938	21.620367	1130.0197	-253.0103	15.000405	1273.8669	-24.696966	17.339046	1079.4197	23.84024	-51.081932	1262.2051	-250.91162	154.73747	1339.4445	-128.92841	246.41896	1204.8353	-109.27809	278.90009	1013.7498	-138.40842	302.47537	880.27533	-82.4916	291.27322	796.90533	-61.925152	309.33054	800.99744	-145.4695	350.86218	728.539	-88.491508	-105.98035	1340.5482	-143.38359	-224.41582	1158.1592	-83.938004	-277.14401	1046.9963	-104.30135	-256.14737	1077.3713	-12.625484	-239.01183	1010.5846	127.94035	-308.50842	980.08301	100.54295	-292.02979	991.26978	204.38896	144.10071	891.98218	-12.424928	-121.993	877.74139	-22.631828	59.999748	947.48706	-232.0244	-29.63949	945.51904	-237.34177
